<svg width="22" height="23" viewBox="0 0 22 23" fill="none" xmlns="http://www.w3.org/2000/svg">
<g clip-path="url(#clip0_54730_1334)">
<path fill-rule="evenodd" clip-rule="evenodd" d="M5.01416 2.15355C4.93298 2.04914 4.83052 1.96319 4.71358 1.90141C4.59664 1.83964 4.46789 1.80345 4.33589 1.79526C4.20389 1.78707 4.07166 1.80705 3.94798 1.85389C3.82429 1.90073 3.71199 1.97335 3.61853 2.06693L2.19678 3.49005C1.53266 4.15555 1.28791 5.09743 1.57803 5.9238C2.78217 9.34424 4.74094 12.4497 7.30903 15.0098C9.86918 17.5779 12.9746 19.5366 16.395 20.7408C17.2214 21.0309 18.1633 20.7862 18.8288 20.1221L20.2505 18.7003C20.3441 18.6068 20.4167 18.4945 20.4636 18.3709C20.5104 18.2472 20.5304 18.1149 20.5222 17.9829C20.514 17.8509 20.4778 17.7222 20.416 17.6052C20.3543 17.4883 20.2683 17.3859 20.1639 17.3047L16.9918 14.8379C16.8802 14.7514 16.7505 14.6914 16.6123 14.6623C16.4742 14.6332 16.3312 14.6359 16.1943 14.6702L13.183 15.4223C12.7811 15.5228 12.36 15.5174 11.9607 15.4068C11.5614 15.2962 11.1976 15.0841 10.9047 14.7912L7.52766 11.4128C7.23446 11.12 7.0221 10.7562 6.91126 10.3569C6.80042 9.95766 6.79487 9.53649 6.89516 9.13443L7.64866 6.12318C7.6829 5.98622 7.6856 5.84328 7.65654 5.70513C7.62748 5.56698 7.56743 5.43723 7.48091 5.32568L5.01416 2.15355ZM2.58041 1.03018C2.82102 0.789485 3.11009 0.602733 3.42842 0.482326C3.74675 0.361918 4.08705 0.31061 4.42673 0.331807C4.76641 0.353004 5.09769 0.446223 5.39858 0.605272C5.69947 0.764321 5.96308 0.985562 6.17191 1.2543L8.63866 4.42505C9.09103 5.00668 9.25053 5.7643 9.07178 6.4793L8.31966 9.49055C8.28077 9.64652 8.28287 9.80989 8.32575 9.96481C8.36864 10.1197 8.45085 10.2609 8.56441 10.3747L11.9428 13.7531C12.0567 13.8668 12.1981 13.9492 12.3533 13.9921C12.5085 14.035 12.6721 14.0369 12.8283 13.9978L15.8382 13.2457C16.191 13.1575 16.5593 13.1506 16.9152 13.2256C17.271 13.3007 17.6052 13.4556 17.8924 13.6788L21.0632 16.1456C22.203 17.0324 22.3075 18.7168 21.2873 19.7357L19.8655 21.1574C18.848 22.1749 17.3273 22.6218 15.9097 22.1227C12.2813 20.846 8.98691 18.7688 6.27091 16.0452C3.54743 13.3296 1.47024 10.0357 0.193405 6.4078C-0.304345 4.99155 0.14253 3.46943 1.16003 2.45193L2.58178 1.03018H2.58041Z" fill="#FFFDFD"/>
</g>
<defs>
<clipPath id="clip0_54730_1334">
<rect width="22" height="22" fill="black" transform="translate(0 0.333496)"/>
</clipPath>
</defs>
</svg>
